<svg id="visual" viewBox="0 0 900 600" width="900" height="600" xmlns="http://www.w3.org/2000/svg" xmlns:xlink="http://www.w3.org/1999/xlink" version="1.1"><rect x="0" y="0" width="900" height="600" fill="#102335"></rect><path d="M0 368L8.8 366.8C17.7 365.7 35.3 363.3 53 360.5C70.7 357.7 88.3 354.3 106 359.5C123.7 364.7 141.3 378.3 159 385.5C176.7 392.7 194.3 393.3 212 394.8C229.7 396.3 247.3 398.7 265 396.8C282.7 395 300.3 389 318 389C335.7 389 353.3 395 371 393.2C388.7 391.3 406.3 381.7 423.8 380.2C441.3 378.7 458.7 385.3 476.2 391.8C493.7 398.3 511.3 404.7 529 405.5C546.7 406.3 564.3 401.7 582 398.3C599.7 395 617.3 393 635 391.5C652.7 390 670.3 389 688 391.3C705.7 393.7 723.3 399.3 741 393.5C758.7 387.7 776.3 370.3 794 361.7C811.7 353 829.3 353 847 362.8C864.7 372.7 882.3 392.3 891.2 402.2L900 412L900 601L891.2 601C882.3 601 864.7 601 847 601C829.3 601 811.7 601 794 601C776.3 601 758.7 601 741 601C723.3 601 705.7 601 688 601C670.3 601 652.7 601 635 601C617.3 601 599.7 601 582 601C564.3 601 546.7 601 529 601C511.3 601 493.7 601 476.2 601C458.7 601 441.3 601 423.8 601C406.3 601 388.7 601 371 601C353.3 601 335.7 601 318 601C300.3 601 282.7 601 265 601C247.3 601 229.7 601 212 601C194.3 601 176.7 601 159 601C141.3 601 123.7 601 106 601C88.3 601 70.7 601 53 601C35.3 601 17.7 601 8.8 601L0 601Z" fill="#00a76a"></path><path d="M0 403L8.8 400.7C17.7 398.3 35.3 393.7 53 397.7C70.7 401.7 88.3 414.3 106 418.2C123.7 422 141.3 417 159 413.5C176.7 410 194.3 408 212 405.7C229.7 403.3 247.3 400.7 265 407.7C282.7 414.7 300.3 431.3 318 434C335.7 436.7 353.3 425.3 371 424.2C388.7 423 406.3 432 423.8 433.7C441.3 435.3 458.7 429.7 476.2 426.8C493.7 424 511.3 424 529 420C546.7 416 564.3 408 582 409.3C599.7 410.7 617.3 421.3 635 425.5C652.7 429.7 670.3 427.3 688 426.8C705.7 426.3 723.3 427.7 741 425.2C758.7 422.7 776.3 416.3 794 417.2C811.7 418 829.3 426 847 431.3C864.7 436.7 882.3 439.3 891.2 440.7L900 442L900 601L891.2 601C882.3 601 864.7 601 847 601C829.3 601 811.7 601 794 601C776.3 601 758.7 601 741 601C723.3 601 705.7 601 688 601C670.3 601 652.7 601 635 601C617.3 601 599.7 601 582 601C564.3 601 546.7 601 529 601C511.3 601 493.7 601 476.2 601C458.7 601 441.3 601 423.8 601C406.3 601 388.7 601 371 601C353.3 601 335.7 601 318 601C300.3 601 282.7 601 265 601C247.3 601 229.7 601 212 601C194.3 601 176.7 601 159 601C141.3 601 123.7 601 106 601C88.3 601 70.7 601 53 601C35.3 601 17.7 601 8.8 601L0 601Z" fill="#52b15b"></path><path d="M0 477L8.8 474.3C17.7 471.7 35.3 466.3 53 460.2C70.7 454 88.3 447 106 445.5C123.7 444 141.3 448 159 449.5C176.7 451 194.3 450 212 449C229.7 448 247.3 447 265 448.2C282.7 449.3 300.3 452.7 318 455.2C335.7 457.7 353.3 459.3 371 456.5C388.7 453.7 406.3 446.3 423.8 449.3C441.3 452.3 458.7 465.7 476.2 471.7C493.7 477.7 511.3 476.3 529 467.8C546.7 459.3 564.3 443.7 582 444.3C599.7 445 617.3 462 635 463.8C652.7 465.7 670.3 452.3 688 443.7C705.7 435 723.3 431 741 436.3C758.7 441.7 776.3 456.3 794 457.5C811.7 458.7 829.3 446.3 847 440.7C864.7 435 882.3 436 891.2 436.5L900 437L900 601L891.2 601C882.3 601 864.7 601 847 601C829.3 601 811.7 601 794 601C776.3 601 758.7 601 741 601C723.3 601 705.7 601 688 601C670.3 601 652.7 601 635 601C617.3 601 599.7 601 582 601C564.3 601 546.7 601 529 601C511.3 601 493.7 601 476.2 601C458.7 601 441.3 601 423.8 601C406.3 601 388.7 601 371 601C353.3 601 335.7 601 318 601C300.3 601 282.7 601 265 601C247.3 601 229.7 601 212 601C194.3 601 176.7 601 159 601C141.3 601 123.7 601 106 601C88.3 601 70.7 601 53 601C35.3 601 17.7 601 8.8 601L0 601Z" fill="#7fba4d"></path><path d="M0 473L8.8 471.8C17.7 470.7 35.3 468.3 53 473.8C70.7 479.3 88.3 492.7 106 493C123.7 493.3 141.3 480.7 159 474.8C176.7 469 194.3 470 212 475.2C229.7 480.3 247.3 489.7 265 489.5C282.7 489.3 300.3 479.7 318 479C335.7 478.3 353.3 486.7 371 492.8C388.7 499 406.3 503 423.8 505C441.3 507 458.7 507 476.2 503C493.7 499 511.3 491 529 491.2C546.7 491.3 564.3 499.7 582 499.3C599.7 499 617.3 490 635 483.8C652.7 477.7 670.3 474.3 688 473C705.7 471.7 723.3 472.3 741 474.8C758.7 477.3 776.3 481.7 794 485C811.7 488.3 829.3 490.7 847 487.5C864.7 484.3 882.3 475.7 891.2 471.3L900 467L900 601L891.2 601C882.3 601 864.7 601 847 601C829.3 601 811.7 601 794 601C776.3 601 758.7 601 741 601C723.3 601 705.7 601 688 601C670.3 601 652.7 601 635 601C617.3 601 599.7 601 582 601C564.3 601 546.7 601 529 601C511.3 601 493.7 601 476.2 601C458.7 601 441.3 601 423.8 601C406.3 601 388.7 601 371 601C353.3 601 335.7 601 318 601C300.3 601 282.7 601 265 601C247.3 601 229.7 601 212 601C194.3 601 176.7 601 159 601C141.3 601 123.7 601 106 601C88.3 601 70.7 601 53 601C35.3 601 17.7 601 8.8 601L0 601Z" fill="#a9c142"></path><path d="M0 509L8.8 509.8C17.7 510.7 35.3 512.3 53 514.5C70.7 516.7 88.3 519.3 106 523.3C123.7 527.3 141.3 532.7 159 531.5C176.7 530.3 194.3 522.7 212 520.8C229.7 519 247.3 523 265 521.8C282.7 520.7 300.3 514.3 318 513.7C335.7 513 353.3 518 371 518.5C388.7 519 406.3 515 423.8 514.7C441.3 514.3 458.7 517.7 476.2 517.5C493.7 517.3 511.3 513.7 529 515.7C546.7 517.7 564.3 525.3 582 524.2C599.7 523 617.3 513 635 511.8C652.7 510.7 670.3 518.3 688 519.5C705.7 520.7 723.3 515.3 741 512C758.7 508.7 776.3 507.3 794 511.8C811.7 516.3 829.3 526.7 847 532.5C864.7 538.3 882.3 539.7 891.2 540.3L900 541L900 601L891.2 601C882.3 601 864.7 601 847 601C829.3 601 811.7 601 794 601C776.3 601 758.7 601 741 601C723.3 601 705.7 601 688 601C670.3 601 652.7 601 635 601C617.3 601 599.7 601 582 601C564.3 601 546.7 601 529 601C511.3 601 493.7 601 476.2 601C458.7 601 441.3 601 423.8 601C406.3 601 388.7 601 371 601C353.3 601 335.7 601 318 601C300.3 601 282.7 601 265 601C247.3 601 229.7 601 212 601C194.3 601 176.7 601 159 601C141.3 601 123.7 601 106 601C88.3 601 70.7 601 53 601C35.3 601 17.7 601 8.8 601L0 601Z" fill="#d4c63d"></path><path d="M0 550L8.8 553.3C17.7 556.7 35.3 563.3 53 561.5C70.7 559.7 88.3 549.3 106 546C123.7 542.7 141.3 546.3 159 547.2C176.7 548 194.3 546 212 547.8C229.7 549.7 247.3 555.3 265 555.3C282.7 555.3 300.3 549.7 318 550C335.7 550.3 353.3 556.7 371 557.2C388.7 557.7 406.3 552.3 423.8 548.3C441.3 544.3 458.7 541.7 476.2 542.2C493.7 542.7 511.3 546.3 529 551.5C546.7 556.7 564.3 563.3 582 565.5C599.7 567.7 617.3 565.3 635 564.3C652.7 563.3 670.3 563.7 688 565C705.7 566.3 723.3 568.7 741 566.7C758.7 564.7 776.3 558.3 794 557.7C811.7 557 829.3 562 847 564.8C864.7 567.7 882.3 568.3 891.2 568.7L900 569L900 601L891.2 601C882.3 601 864.7 601 847 601C829.3 601 811.7 601 794 601C776.3 601 758.7 601 741 601C723.3 601 705.7 601 688 601C670.3 601 652.7 601 635 601C617.3 601 599.7 601 582 601C564.3 601 546.7 601 529 601C511.3 601 493.7 601 476.2 601C458.7 601 441.3 601 423.8 601C406.3 601 388.7 601 371 601C353.3 601 335.7 601 318 601C300.3 601 282.7 601 265 601C247.3 601 229.7 601 212 601C194.3 601 176.7 601 159 601C141.3 601 123.7 601 106 601C88.3 601 70.7 601 53 601C35.3 601 17.7 601 8.8 601L0 601Z" fill="#ffc844"></path></svg>